<svg width="7" height="8" viewBox="0 0 7 8" fill="none" xmlns="http://www.w3.org/2000/svg">
<path fill-rule="evenodd" clip-rule="evenodd" d="M6.49874 7.38794H0.358391C0.269618 7.38794 0.197723 7.31603 0.197723 7.22725V5.91654C0.197723 5.82777 0.269618 5.75586 0.358391 5.75586H6.49879C6.58754 5.75586 6.65945 5.82777 6.65945 5.91654V6.35595C6.65945 6.44472 6.58754 6.51663 6.49879 6.51663C6.41001 6.51663 6.3381 6.44472 6.3381 6.35595V6.07721H0.519057V7.06659H6.33806V6.83276C6.33806 6.74399 6.40996 6.67209 6.49873 6.67209C6.5875 6.67209 6.65941 6.74399 6.65941 6.83276V7.22725C6.65936 7.31603 6.58749 7.38794 6.49874 7.38794Z" fill="#84A98C"/>
<path fill-rule="evenodd" clip-rule="evenodd" d="M5.51414 7.38906C5.42536 7.38906 5.35347 7.31715 5.35347 7.22838V6.78568C5.35347 6.69691 5.42536 6.625 5.51414 6.625C5.60291 6.625 5.67482 6.69691 5.67482 6.78568V7.22838C5.67482 7.31715 5.60289 7.38906 5.51414 7.38906Z" fill="#84A98C"/>
<path fill-rule="evenodd" clip-rule="evenodd" d="M4.67988 7.38881C4.59111 7.38881 4.51921 7.3169 4.51921 7.22813V6.55129C4.51921 6.46252 4.59111 6.39062 4.67988 6.39062C4.76865 6.39062 4.84055 6.46252 4.84055 6.55129V7.22813C4.84055 7.3169 4.76859 7.38881 4.67988 7.38881Z" fill="#84A98C"/>
<path fill-rule="evenodd" clip-rule="evenodd" d="M3.84551 7.38906C3.75674 7.38906 3.68484 7.31715 3.68484 7.22838V6.78568C3.68484 6.69691 3.75674 6.625 3.84551 6.625C3.93429 6.625 4.00618 6.69691 4.00618 6.78568V7.22838C4.00612 7.31715 3.93421 7.38906 3.84551 7.38906Z" fill="#84A98C"/>
<path fill-rule="evenodd" clip-rule="evenodd" d="M3.01133 7.38881C2.92256 7.38881 2.85065 7.3169 2.85065 7.22813V6.55129C2.85065 6.46252 2.92256 6.39062 3.01133 6.39062C3.1001 6.39062 3.172 6.46252 3.172 6.55129V7.22813C3.172 7.3169 3.1001 7.38881 3.01133 7.38881Z" fill="#84A98C"/>
<path fill-rule="evenodd" clip-rule="evenodd" d="M2.1769 7.38906C2.08813 7.38906 2.01622 7.31715 2.01622 7.22838V6.78568C2.01622 6.69691 2.08813 6.625 2.1769 6.625C2.26568 6.625 2.33757 6.69691 2.33757 6.78568V7.22838C2.33757 7.31715 2.26564 7.38906 2.1769 7.38906Z" fill="#84A98C"/>
<path fill-rule="evenodd" clip-rule="evenodd" d="M1.34293 7.38881C1.25416 7.38881 1.18227 7.3169 1.18227 7.22813V6.55129C1.18227 6.46252 1.25416 6.39062 1.34293 6.39062C1.43171 6.39062 1.50362 6.46252 1.50362 6.55129V7.22813C1.50362 7.3169 1.43169 7.38881 1.34293 7.38881Z" fill="#84A98C"/>
<path fill-rule="evenodd" clip-rule="evenodd" d="M5.04699 5.18854H1.93839C1.84962 5.18854 1.77771 5.11664 1.77771 5.02787C1.77771 4.9391 1.84962 4.86719 1.93839 4.86719H5.04693C5.1357 4.86719 5.20761 4.9391 5.20761 5.02787C5.20761 5.11664 5.1357 5.18854 5.04699 5.18854Z" fill="#84A98C"/>
<path fill-rule="evenodd" clip-rule="evenodd" d="M4.78932 5.44625C4.74819 5.44625 4.70708 5.43059 4.67573 5.39924C4.61294 5.33645 4.61294 5.23476 4.67566 5.172L4.81986 5.0278L4.67566 4.8836C4.61294 4.82082 4.61294 4.71912 4.67573 4.65637C4.73849 4.59373 4.84019 4.59367 4.90294 4.65643L5.1607 4.91423C5.22341 4.97701 5.22341 5.07864 5.1607 5.14141L4.90294 5.3992C4.87154 5.43059 4.83043 5.44625 4.78932 5.44625Z" fill="#84A98C"/>
<path fill-rule="evenodd" clip-rule="evenodd" d="M2.06745 5.44631C2.02634 5.44631 1.98521 5.43065 1.95379 5.39923L1.696 5.14142C1.63323 5.07872 1.63323 4.97696 1.696 4.91425L1.95379 4.65646C2.01658 4.59368 2.11827 4.59368 2.18102 4.65646C2.24379 4.71917 2.24379 4.82093 2.18102 4.88363L2.03681 5.02785L2.18102 5.17205C2.24379 5.23475 2.24379 5.33651 2.18102 5.39923C2.14966 5.43065 2.10856 5.44631 2.06745 5.44631Z" fill="#84A98C"/>
<path fill-rule="evenodd" clip-rule="evenodd" d="M4.49195 4.29915H2.24296C2.15419 4.29915 2.08228 4.22724 2.08228 4.13847V2.37943C2.08228 2.29066 2.15419 2.21875 2.24296 2.21875H4.49195C4.58073 2.21875 4.65262 2.29066 4.65262 2.37943V4.13847C4.65262 4.22724 4.58073 4.29915 4.49195 4.29915ZM2.40363 3.9778H4.33127V2.5401H2.40363V3.9778Z" fill="#84A98C"/>
<path fill-rule="evenodd" clip-rule="evenodd" d="M3.8294 4.29832H2.90559C2.81681 4.29832 2.74492 4.2264 2.74492 4.13763V3.10012C2.74492 3.01136 2.81681 2.93945 2.90559 2.93945H3.8294C3.91817 2.93945 3.99008 3.01136 3.99008 3.10012V4.13766C3.99003 4.22641 3.91811 4.29832 3.8294 4.29832ZM3.06625 3.97696H3.66873V3.2608H3.06625V3.97696Z" fill="#84A98C"/>
<path fill-rule="evenodd" clip-rule="evenodd" d="M4.90871 2.53928H1.8261C1.76238 2.53928 1.70476 2.50168 1.67905 2.44339C1.65339 2.38508 1.66455 2.31713 1.70756 2.27016L2.26015 1.66607C2.32001 1.60062 2.42161 1.59611 2.48716 1.65598C2.55265 1.7159 2.55719 1.81749 2.49727 1.88299L2.19087 2.21796L4.54408 2.21793L3.36746 0.931658L2.9334 1.40614C2.87355 1.47163 2.7719 1.47617 2.70639 1.41625C2.64091 1.35638 2.63637 1.25473 2.6963 1.18924L3.2489 0.585091C3.30971 0.518543 3.42513 0.51848 3.486 0.585091L5.0273 2.2701C5.07031 2.31708 5.08146 2.38502 5.0558 2.44333C5.03011 2.50168 4.97242 2.53928 4.90871 2.53928Z" fill="#84A98C"/>
</svg>
