<?xml version="1.0" encoding="UTF-8"?>
<svg version="1.1" viewBox="0 0 2048 2048" width="1280" height="1280" xmlns="http://www.w3.org/2000/svg">
<path transform="translate(0,448)" d="m0 0h2048v1152h-2048z" fill="#2781BA"/>
<path transform="translate(960,1087)" d="m0 0 1088 1v512h-2048v-512z" fill="#F8F8F9"/>
<path transform="translate(0,1472)" d="m0 0h2048v128h-2048z" fill="#E7503C"/>
<path transform="translate(0,1344)" d="m0 0h2048v128h-2048z" fill="#F8F8F9"/>
<path transform="translate(0,1216)" d="m0 0h2048v128h-2048z" fill="#E7503C"/>
<path transform="translate(960,832)" d="m0 0h1088v128h-1088z" fill="#F8F8F9"/>
<path transform="translate(960,576)" d="m0 0h1088v128h-1088z" fill="#F8F8F9"/>
<path transform="translate(960,960)" d="m0 0h1088v128h-1087l-1-1z" fill="#E7503C"/>
<path transform="translate(962,448)" d="m0 0h1086v128h-1087l-2-127z" fill="#E6503D"/>
<path transform="translate(960,704)" d="m0 0h1088v128h-1087l-1-92z" fill="#E7503C"/>
<path transform="translate(91,895)" d="m0 0 8 1 8 7 5 5 8 4 4 7-3 7-4 5-1 16-4 6-4 3-7-1-7-3-5 1-6 3-6-1-5-5-2-3 1-12-8-12v-7l4-5 12-5h2l2-4 5-5z" fill="#F9F9FA"/>
<path transform="translate(859,639)" d="m0 0 8 1 6 4 5 7 8 4 5 5v7l-6 8-1 16-4 6-4 3-7-1-7-3-5 1-6 3-6-1-5-4-2-3v-7l1-6-4-6-5-8 2-7 5-4 12-5 5-7z" fill="#F9F9FA"/>
<path transform="translate(763,959)" d="m0 0 8 1 8 7 5 5 6 3 6 7-2 6-5 7-1 16-4 6-4 3-7-1-6-3-6 1-6 3-6-1-5-5-2-3 1-12-4-6-5-8 2-7 5-4 12-5 5-7z" fill="#F9F9FA"/>
<path transform="translate(187,959)" d="m0 0 8 1 8 7 5 5 6 3 6 7-2 6-5 7-1 16-4 6-4 3-7-1-6-3-6 1-6 3-6-1-5-5-2-3 1-12-8-12v-7l4-5 12-5h2l2-4 5-5z" fill="#F9F9FA"/>
<path transform="translate(92,639)" d="m0 0 7 1 8 7 5 5 8 4 4 7-3 7-4 5-1 16-4 6-4 3-7-1-7-3-5 1-5 3-7-1-5-5-2-3 1-12-8-12v-7l4-5 13-5 6-8z" fill="#F9F9FA"/>
<path transform="translate(92,511)" d="m0 0 7 1 8 7 5 5 6 3 5 5v7l-6 8-1 16-4 6-4 3-7-1-7-3-5 1-6 3-6-1-5-5-2-3 1-12-8-12v-7l4-5 13-6 6-7z" fill="#F9F9FA"/>
<path transform="translate(571,959)" d="m0 0 8 1 8 7 5 5 6 3 6 7-2 6-5 7-1 16-4 6-4 3-7-1-6-3-7 1-5 3-6-1-5-5-2-3 1-12-4-6-5-8 2-7 5-4 12-5 5-7z" fill="#F9F9FA"/>
<path transform="translate(379,959)" d="m0 0 8 1 8 7 5 5 6 3 6 7-2 6-5 7-1 16-4 6-4 3-7-1-6-3-7 1-5 3-6-1-5-5-2-3 1-12-4-6-5-8 2-7 5-4 12-5 5-7z" fill="#F9F9FA"/>
<path transform="translate(572,703)" d="m0 0 9 2 8 9v2l8 2 6 6v7l-6 8-1 16-4 6-4 3-9-2-7-2-8 4-7-1-5-4-2-3v-7l1-6-8-12v-7l4-5 14-6 5-7z" fill="#F9F9FA"/>
<path transform="translate(380,703)" d="m0 0 9 2 8 9v2l8 2 6 6v7l-6 8-1 16-4 6-4 3-9-2-7-2-8 4-7-1-5-4-2-3v-7l1-6-8-12v-7l4-5 14-6 5-7z" fill="#F9F9FA"/>
<path transform="translate(764,703)" d="m0 0 9 2 8 9v2l8 2 6 6v7l-6 8-1 16-4 6-4 3-9-2-7-2-8 4-7-1-5-4-2-3v-7l1-6-8-12v-7l4-5 14-6 5-7z" fill="#F9F9FA"/>
<path transform="translate(188,703)" d="m0 0 9 2 8 9v2l8 2 6 6v7l-6 8-1 16-4 6-4 3-9-2-7-2-8 4-7-1-5-4-2-3v-7l1-6-8-12v-7l4-5 14-6 5-7z" fill="#F9F9FA"/>
<path transform="translate(668,639)" d="m0 0 9 2 8 9v2l8 2 6 6v7l-6 8-1 16-4 6-4 3-9-2-7-2-8 4-7-1-5-4-2-3v-7l1-6-8-12v-7l4-5 14-6 5-7z" fill="#F9F9FA"/>
<path transform="translate(476,639)" d="m0 0 9 2 8 9v2l8 2 6 6v7l-6 8-1 16-4 6-4 3-9-2-7-2-8 4-7-1-5-4-2-3v-7l1-6-8-12v-7l4-5 14-6 5-7z" fill="#F9F9FA"/>
<path transform="translate(284,639)" d="m0 0 9 2 8 9v2l8 2 6 6v7l-6 8-1 16-4 6-4 3-9-2-7-2-8 4-7-1-5-4-2-3v-7l1-6-8-12v-7l4-5 14-6 5-7z" fill="#F9F9FA"/>
<path transform="translate(859,895)" d="m0 0 8 1 8 7 5 5 6 3 5 5v7l-6 8-1 16-4 6-4 3-7-1-6-3-7 1-5 3-6-1-7-8 1-12-4-6-5-8 2-7 5-4 12-5 5-7z" fill="#F9F9FA"/>
<path transform="translate(668,895)" d="m0 0 9 2 8 9v2l8 2 6 6v7l-6 8-1 16-4 6-4 3-9-2-5-2-6 1-5 3-6-1-7-7v-7l1-6-4-6-5-8 2-7 6-5 10-3 6-8z" fill="#F9F9FA"/>
<path transform="translate(476,895)" d="m0 0 9 2 8 9v2l8 2 6 6v7l-6 8-1 16-4 6-4 3-9-2-5-2-6 1-5 3-6-1-7-7v-7l1-6-4-6-5-8 2-7 6-5 10-3 6-8z" fill="#F9F9FA"/>
<path transform="translate(284,895)" d="m0 0 9 2 8 9v2l8 2 6 6v7l-6 8-1 16-4 6-4 3-9-2-5-2-6 1-5 3-6-1-7-7v-7l1-6-4-6-5-8 2-7 6-5 10-3 6-8z" fill="#F9F9FA"/>
<path transform="translate(662,515)" d="m0 0h10l7 6 5 5 8 3 6 5 2 5-3 6-4 5-1 15-3 6-4 4h-6l-9-4-5 1-5 3h-6l-7-6-1-2v-7l1-5-3-6-5-6v-8l4-5 8-3h5v-6l5-5z" fill="#F8F8F9"/>
<path transform="translate(470,515)" d="m0 0h10l7 6 5 5 8 3 6 5 2 5-3 6-4 5-1 15-3 6-4 4h-6l-9-4-5 1-5 3h-6l-7-6-1-2v-7l1-6-4-6-4-5v-8l4-5 8-3h5v-6l5-5z" fill="#F8F8F9"/>
<path transform="translate(278,515)" d="m0 0h10l7 6 5 5 8 3 6 5 1 2v6l-6 8-1 15-3 6-4 4h-6l-9-4-5 1-5 3h-6l-7-6-1-2v-7l1-5-3-6-5-6v-8l4-5 8-3h5v-6l5-5z" fill="#F8F8F9"/>
<path transform="translate(854,515)" d="m0 0h9l8 6 1 3h2v2l5 1 8 4 4 5v6l-6 8-1 15-3 6-4 4h-6l-9-4-5 1-5 3h-6l-6-5-2-3 1-12-3-6-5-6v-8l4-5 12-4 2-7z" fill="#F8F8F9"/>
<path transform="translate(86,771)" d="m0 0h10l7 6 5 5 10 4 5 6 1 3-4 7-3 4-1 6v9l-3 6-4 4h-6l-9-4-5 1-5 3-7-1-6-5-1-2v-7l1-6-4-6-4-5v-8l4-5 9-3h4v-6l5-5z" fill="#F8F8F9"/>
<path transform="translate(854,771)" d="m0 0h9l6 4 5 6 10 4 6 5 1 2v6l-6 8-1 15-3 6-4 4h-6l-9-4-5 1-5 3h-6l-6-5-2-3 1-13-4-6-4-5v-8l4-5 3-2 9-1 2-8z" fill="#F9F9FA"/>
<path transform="translate(758,579)" d="m0 0h10l7 6 4 5 11 4 5 5 1 4-4 7-3 4-1 7v9l-4 6-3 3-8-1-7-3-5 1-5 3-7-1-6-5-1-2 1-13-4-6-4-5v-8l4-5 4-2 9-1v-6l4-5z" fill="#F9F9FA"/>
<path transform="translate(758,835)" d="m0 0h10l6 5 5 6 11 4 5 5 1 4-3 6-4 5-1 7v9l-4 6-3 3-8-1-7-3-5 1-5 3-7-1-6-5-1-2 1-13-4-6-4-5v-8l4-5 4-2 8-1 2-8z" fill="#F9F9FA"/>
<path transform="translate(566,579)" d="m0 0h10l7 6 4 5 11 4 5 5 1 4-4 7-3 4-1 7v9l-4 6-3 3-8-1-7-3-5 1-5 3-7-1-6-5-1-2 1-13-4-6-4-5v-8l4-5 4-2 9-1v-6l4-5z" fill="#F9F9FA"/>
<path transform="translate(374,579)" d="m0 0h10l7 6 4 5 11 4 5 5 1 4-4 7-3 4-1 7v9l-4 6-3 3-8-1-7-3-5 1-5 3-7-1-6-5-1-2 1-13-4-6-4-5v-8l4-5 4-2 9-1v-6l4-5z" fill="#F9F9FA"/>
<path transform="translate(182,579)" d="m0 0h10l7 6 4 5 11 4 5 5 1 4-4 7-3 4-1 7v9l-4 6-3 3-8-1-7-3-5 1-5 3-7-1-6-5-1-2 1-13-4-6-4-5v-8l4-5 4-2 9-1v-6l5-5z" fill="#F9F9FA"/>
<path transform="translate(470,771)" d="m0 0h10l6 5 5 6 10 3 6 6v7l-6 8-1 8v8l-4 6-3 3-8-1-7-3-5 1-5 3-7-1-6-5-1-2 1-13-4-6-4-5v-8l4-5 3-2 9-1 2-8z" fill="#F9F9FA"/>
<path transform="translate(278,771)" d="m0 0h10l6 5 5 6 10 3 6 6v7l-6 8-1 8v8l-4 6-3 3-8-1-7-3-5 1-5 3-7-1-6-5-1-2 1-13-4-6-4-5v-8l4-5 3-2 9-1 2-8z" fill="#F9F9FA"/>
<path transform="translate(374,835)" d="m0 0h10l6 5 5 6 11 4 5 5v7l-6 8-1 7v9l-4 6-3 3-8-1-7-3-5 1-5 3-7-1-6-5-1-2 1-13-4-6-4-5v-8l4-5 4-2 8-1 2-8z" fill="#F9F9FA"/>
<path transform="translate(182,835)" d="m0 0h10l6 5 5 6 11 4 5 5v7l-6 8-1 7v9l-4 6-3 3-8-1-7-3-5 1-5 3-7-1-6-5-1-2 1-13-4-6-4-5v-8l4-5 4-2 8-1 2-8z" fill="#F9F9FA"/>
<path transform="translate(662,771)" d="m0 0h10l6 5 5 6 10 3 6 7v6l-6 8-1 8v8l-4 6-3 3-8-1-7-3-5 1-5 3-7-1-6-5-1-2 1-13-4-6-4-5v-8l4-5 3-2 9-1 2-8z" fill="#F9F9FA"/>
<path transform="translate(566,835)" d="m0 0h10l6 5 5 6 11 4 5 5v7l-6 8-1 8v8l-4 6-3 3-8-1-7-3-5 1-5 3-7-1-6-5-1-2 1-13-4-6-4-5v-8l4-5 4-2 8-1 2-8z" fill="#F9F9FA"/>
<path transform="translate(0,1472)" d="m0 0h2048l-2 2h-1909l-126 1-11-1z" fill="#E05D53"/>
<path transform="translate(960,960)" d="m0 0h1l1 35v91h948l138 1v1h-1087l-1-1z" fill="#E05D53"/>
</svg>
