<svg width="20" height="20" viewBox="0 0 20 20" fill="none" xmlns="http://www.w3.org/2000/svg">
<rect width="20" height="20" fill="#F5F5F5"/>
<rect x="-889" y="-1732" width="2456" height="1976" fill="#D9D9D9"/>
<g clip-path="url(#clip0_108_1592)">
<rect x="-86" y="-1443" width="360" height="1504" rx="12" fill="#F8F8F8"/>
<rect x="58" y="33" width="48" height="48" rx="24" transform="rotate(-180 58 33)" fill="#84A98C"/>
<path d="M-103 -17H-4.75H36.2574C41.4629 -17 46.4633 -14.9704 50.1963 -11.3424L69.5253 7.4427C84.7302 22.2199 109.218 21.2226 123.171 5.25807L136.648 -10.1616C140.446 -14.507 145.936 -17 151.707 -17H191.75H290V35C290 48.2548 279.255 59 266 59H-79C-92.2548 59 -103 48.2548 -103 35V-17Z" fill="#FEFEFE"/>
<g clip-path="url(#clip1_108_1592)">
<path d="M9.59568 8.63613C9.59568 8.46348 9.73552 8.32324 9.90857 8.32324H12.7578C12.9304 8.32324 13.0707 8.46309 13.0707 8.63613C13.0707 8.80918 12.9308 8.94902 12.7578 8.94902H9.90857C9.73591 8.94902 9.59568 8.80918 9.59568 8.63613ZM9.90857 10.3264H12.7578C12.9304 10.3264 13.0707 10.1865 13.0707 10.0135C13.0707 9.84043 12.9308 9.70059 12.7578 9.70059H9.90857C9.73591 9.70059 9.59568 9.84043 9.59568 10.0135C9.59568 10.1865 9.73552 10.3264 9.90857 10.3264ZM9.90857 11.7025H12.7578C12.9304 11.7025 13.0707 11.5627 13.0707 11.3896C13.0707 11.2166 12.9308 11.0768 12.7578 11.0768H9.90857C9.73591 11.0768 9.59568 11.2166 9.59568 11.3896C9.59568 11.5627 9.73552 11.7025 9.90857 11.7025ZM12.7578 12.4533H9.90857C9.73591 12.4533 9.59568 12.5932 9.59568 12.7662C9.59568 12.9393 9.73552 13.0791 9.90857 13.0791H12.7578C12.9304 13.0791 13.0707 12.9393 13.0707 12.7662C13.0707 12.5932 12.9308 12.4533 12.7578 12.4533ZM13.9304 4.20059H12.1566C11.984 4.20059 11.8437 4.06074 11.8437 3.88769V2.11387C11.8437 1.94121 11.9836 1.80098 12.1566 1.80098H13.9304C14.1031 1.80098 14.2433 1.94082 14.2433 2.11387V3.88769C14.2433 4.06035 14.1035 4.20059 13.9304 4.20059ZM13.6176 2.42676H12.4691V3.57519H13.6176V2.42676ZM14.5465 6.46465V4.69082C14.5465 4.51816 14.6863 4.37793 14.8594 4.37793H16.6344C16.807 4.37793 16.9472 4.51777 16.9472 4.69082V6.46465C16.9472 6.6373 16.8074 6.77754 16.6344 6.77754H14.8594C14.6867 6.77754 14.5465 6.6377 14.5465 6.46465ZM15.1722 6.15176H16.3215V5.00332H15.1722V6.15176ZM15.4508 9.82793H17.2258C17.3984 9.82793 17.5386 9.96777 17.5386 10.1408V11.9146C17.5386 12.0873 17.3988 12.2275 17.2258 12.2275H15.4508C15.2781 12.2275 15.1379 12.0877 15.1379 11.9146V10.1408C15.1379 9.96816 15.2777 9.82793 15.4508 9.82793ZM15.7636 11.6018H16.9129V10.4533H15.7636V11.6018ZM4.07927 8.83105V6.4416C4.07927 6.26894 4.21912 6.12871 4.39216 6.12871H6.78162C6.95427 6.12871 7.09451 6.26855 7.09451 6.4416V8.83105C7.09451 9.00371 6.95466 9.14394 6.78162 9.14394H4.39216C4.21951 9.14394 4.07927 9.0041 4.07927 8.83105ZM4.70505 8.51816H6.46912V6.7541H4.70505V8.51816ZM19.4101 14.6275C19.3988 14.642 19.3859 14.6557 19.3719 14.6682C19.0258 14.9748 18.7004 15.2572 18.3855 15.5307C17.8004 16.0389 17.2949 16.4775 16.873 16.8838C15.357 18.342 15.0051 18.4861 11.4937 19.0873C10.3601 19.2818 9.20349 19.4553 8.14216 19.4553C7.24841 19.4553 6.42185 19.3322 5.7324 18.9947L3.95427 18.1232C3.65779 17.9779 3.41209 17.8576 3.21755 17.7619V18.6928C3.21755 19.1432 2.85154 19.5096 2.40193 19.5096H1.12771C0.677319 19.5096 0.310913 19.1432 0.310913 18.6928V10.8885C0.310913 10.4389 0.677319 10.0729 1.12771 10.0729H2.40232C2.46755 10.0729 2.53123 10.0807 2.59216 10.0951V4.4373C2.59216 4.33105 2.64607 4.23223 2.73513 4.1748L8.35349 0.541602C8.44959 0.479492 8.57224 0.474805 8.67302 0.529492C8.7738 0.58418 8.8363 0.689648 8.8363 0.804102V7.00449H10.6613V0.804102C10.6613 0.631445 10.8011 0.491211 10.9742 0.491211H18.1836C18.3562 0.491211 18.4965 0.631055 18.4965 0.804102V12.5455C18.839 12.5725 19.1683 12.7342 19.3957 13.0119C19.7816 13.4846 19.7875 14.1486 19.4105 14.6271L19.4101 14.6275ZM2.59216 10.8885C2.59216 10.7838 2.50701 10.6986 2.40232 10.6986H1.12771C1.02419 10.6986 0.936694 10.7857 0.936694 10.8885V18.6928C0.936694 18.7963 1.02419 18.8838 1.12771 18.8838H2.40232C2.50505 18.8838 2.59216 18.7963 2.59216 18.6928V10.8885ZM11.2867 7.00488H14.1429C14.3156 7.00488 14.4558 7.14473 14.4558 7.31777V15.0322C14.5734 14.9682 14.6988 14.8904 14.8332 14.7947C16.7953 13.4006 17.775 12.7033 17.775 12.7033C17.7879 12.6943 17.8011 12.6861 17.8148 12.6791C17.8332 12.6697 17.8519 12.6611 17.8703 12.6525V1.11699H11.2863V7.00449L11.2867 7.00488ZM8.8363 7.63066V13.3885L9.70505 13.4107C10.0359 13.4193 10.3152 13.4264 10.5429 13.4322C11.9394 13.467 12.8445 14.1103 13.1656 15.2943C13.1691 15.2943 13.1726 15.2947 13.1761 15.2951C13.364 15.3076 13.5742 15.3217 13.8301 15.2697V7.63105H8.8363V7.63066ZM3.21794 4.60762V11.9975C3.37029 11.9877 3.51365 11.9791 3.64685 11.9709L3.66248 11.9701C5.21677 11.8728 5.4031 11.9561 6.26091 12.4736C6.49685 12.6162 6.79021 12.7932 7.19646 13.0127C7.28357 13.06 7.35896 13.1014 7.42537 13.1377C7.82849 13.3588 7.85037 13.3709 8.21091 13.3756V1.3791L3.21834 4.60762H3.21794ZM18.9109 13.408C18.7199 13.1748 18.389 13.1006 18.1168 13.2275C17.9652 13.3354 16.9922 14.0279 15.1953 15.3045C14.2277 15.9924 13.5695 15.9479 13.1336 15.9182C13.0601 15.9131 12.998 15.91 12.9433 15.9092C8.75427 15.8502 7.86951 15.8197 7.86091 15.8193C7.68826 15.8131 7.5531 15.6682 7.55935 15.4955C7.5656 15.3228 7.71091 15.1881 7.88318 15.1939C7.89138 15.1939 8.71287 15.2225 12.5054 15.2771C12.2215 14.4826 11.5715 14.0826 10.5273 14.0564C10.2992 14.0506 10.0199 14.0436 9.68904 14.035L8.61638 14.0076C8.47732 14.0041 8.36365 14.0029 8.26794 14.0018C7.71443 13.9951 7.66091 13.9807 7.1242 13.6857C7.05857 13.6498 6.98396 13.6088 6.89841 13.5627C6.47927 13.3361 6.17888 13.1549 5.93709 13.0092C5.16755 12.5447 5.10466 12.5068 3.70037 12.5947L3.68396 12.5959C3.53982 12.6045 3.38396 12.6143 3.21755 12.6248V17.0654C3.43279 17.1709 3.77029 17.3361 4.22966 17.5615L6.00779 18.433C7.34763 19.0893 9.40037 18.8115 11.3883 18.4709C14.7894 17.8885 15.0254 17.7932 16.4394 16.4334C16.8726 16.0162 17.3836 15.5725 17.9754 15.0588C18.282 14.7924 18.5988 14.5174 18.934 14.2205C19.1125 13.9756 19.1043 13.6455 18.9109 13.4084V13.408Z" fill="#9F9F9F"/>
</g>
</g>
<defs>
<clipPath id="clip0_108_1592">
<rect x="-86" y="-1443" width="360" height="1504" rx="12" fill="white"/>
</clipPath>
<clipPath id="clip1_108_1592">
<rect width="20" height="20" fill="white"/>
</clipPath>
</defs>
</svg>
