<svg width="9" height="9" viewBox="0 0 9 9" fill="none" xmlns="http://www.w3.org/2000/svg">
<path d="M3.37497 3.375H4.12497V7.5H3.37497V3.375Z" fill="#84A98C"/>
<path d="M4.87505 3.375H5.62505V7.5H4.87505V3.375Z" fill="#84A98C"/>
<path d="M8.32511 3.37477L7.12511 3.14227V3.89227L7.87511 4.04227V4.87477H7.12511V5.62477H7.87511V6.37477H7.12511V7.12477H7.87511V7.87477H6.75011V2.24977C6.7503 2.19374 6.73793 2.13839 6.71392 2.08777C6.68991 2.03715 6.65486 1.99256 6.61136 1.95727L4.73636 0.457266C4.66985 0.404014 4.58718 0.375 4.50198 0.375C4.41678 0.375 4.33412 0.404014 4.26761 0.457266L2.39261 1.95727C2.34841 1.99219 2.31265 2.03662 2.28798 2.08726C2.26331 2.13789 2.25037 2.19344 2.25011 2.24977V7.87477H1.12511V7.12477H1.87511V6.37477H1.12511V5.62477H1.87511V4.87477H1.12511V4.05727L1.87511 3.90727V3.15727L0.675107 3.37477C0.589128 3.3923 0.51202 3.43942 0.457205 3.50794C0.402389 3.57646 0.373338 3.66204 0.375107 3.74977V8.24977C0.375107 8.34922 0.414616 8.4446 0.484942 8.51493C0.555268 8.58526 0.650651 8.62477 0.750107 8.62477H8.25011C8.34956 8.62477 8.44495 8.58526 8.51527 8.51493C8.5856 8.4446 8.62511 8.34922 8.62511 8.24977V3.74977C8.62688 3.66204 8.59783 3.57646 8.54301 3.50794C8.48819 3.43942 8.41109 3.3923 8.32511 3.37477ZM4.50011 1.22977L5.30636 1.87477H3.69386L4.50011 1.22977ZM3.00011 3.37477V2.62477H6.00011V7.87477H3.00011V3.37477Z" fill="#84A98C"/>
</svg>
