<svg width="9" height="6" viewBox="0 0 9 6" fill="none" xmlns="http://www.w3.org/2000/svg">
<path d="M8.10527 0.947266H0.736847V5.36832H8.10527V0.947266Z" stroke="#84A98C" stroke-width="0.736842" stroke-linecap="round" stroke-linejoin="round"/>
<path d="M8.10529 2.42095C7.91176 2.42095 7.72014 2.38283 7.54135 2.30877C7.36255 2.23471 7.20008 2.12616 7.06325 1.98932C6.92638 1.85247 6.81784 1.69002 6.74379 1.51122C6.66974 1.33242 6.63161 1.14079 6.63161 0.947266H8.10529V2.42095Z" stroke="#84A98C" stroke-width="0.736842" stroke-linecap="round" stroke-linejoin="round"/>
<path d="M6.63161 5.36822C6.63161 4.97736 6.78686 4.60253 7.06325 4.32617C7.3396 4.04978 7.71443 3.89453 8.10529 3.89453V5.36822H6.63161Z" stroke="#84A98C" stroke-width="0.736842" stroke-linecap="round" stroke-linejoin="round"/>
<path d="M0.736877 3.89453C1.12772 3.89453 1.50256 4.04978 1.77893 4.32617C2.0553 4.60253 2.21056 4.97736 2.21056 5.36822H0.736877V3.89453Z" stroke="#84A98C" stroke-width="0.736842" stroke-linecap="round" stroke-linejoin="round"/>
<path d="M2.21053 0.947266C2.21053 1.33811 2.05527 1.71295 1.7789 1.98932C1.50253 2.26569 1.12769 2.42095 0.736847 2.42095V0.947266H2.21053Z" stroke="#84A98C" stroke-width="0.736842" stroke-linecap="round" stroke-linejoin="round"/>
<path d="M5.18522 2.23633H4.17545C3.90418 2.23633 3.68423 2.4425 3.68423 2.69685C3.68423 2.95121 3.90418 3.15738 4.17545 3.15738H4.83043C5.10173 3.15738 5.32165 3.36355 5.32165 3.61791C5.32165 3.87226 5.10173 4.07843 4.83043 4.07843H3.68423" stroke="#84A98C" stroke-width="0.736842" stroke-linecap="round" stroke-linejoin="round"/>
<path d="M4.42108 2.24395V1.86914" stroke="#84A98C" stroke-width="0.736842" stroke-linecap="round" stroke-linejoin="round"/>
<path d="M4.42108 4.45292V4.07812" stroke="#84A98C" stroke-width="0.736842" stroke-linecap="round" stroke-linejoin="round"/>
</svg>
