<svg width="14" height="10" viewBox="0 0 14 10" fill="none" xmlns="http://www.w3.org/2000/svg">
<path fill-rule="evenodd" clip-rule="evenodd" d="M5.47213 5.145C5.47213 4.28955 6.06879 3.59667 6.80546 3.59667C7.54213 3.59667 8.13879 4.28955 8.13879 5.145C8.13879 6.00045 7.54213 6.69333 6.80546 6.69333C6.06879 6.69333 5.47213 6.00045 5.47213 5.145ZM11.4721 8.24167H2.13879C1.77079 8.24167 1.47213 7.89484 1.47213 7.4675V2.8225C1.47213 2.39516 1.77079 2.04833 2.13879 2.04833H11.4721C11.8401 2.04833 12.1388 2.39516 12.1388 2.8225V7.4675C12.1388 7.89484 11.8401 8.24167 11.4721 8.24167ZM0.138794 2.04833V8.24167C0.138794 9.09712 0.735461 9.79 1.47213 9.79H12.1388C12.8755 9.79 13.4721 9.09712 13.4721 8.24167V2.04833C13.4721 1.19288 12.8755 0.5 12.1388 0.5H1.47213C0.735461 0.5 0.138794 1.19288 0.138794 2.04833Z" fill="#84A98C"/>
</svg>
